<?xml version="1.0" standalone="no"?>
<!DOCTYPE svg PUBLIC "-//W3C//DTD SVG 20010904//EN"
 "http://www.w3.org/TR/2001/REC-SVG-20010904/DTD/svg10.dtd">
<svg version="1.0" xmlns="http://www.w3.org/2000/svg"
 width="640.000000pt" height="640.000000pt" viewBox="0 0 640.000000 640.000000"
 preserveAspectRatio="xMidYMid meet">
<metadata>
Created by potrace 1.14, written by Peter Selinger 2001-2017
</metadata>
<g transform="translate(0.000000,640.000000) scale(0.100000,-0.100000)"
fill="#000000" stroke="none">
<path d="M2954 4905 c-258 -38 -543 -152 -754 -302 -122 -87 -316 -281 -403
-403 -77 -109 -193 -338 -231 -455 -117 -368 -117 -722 0 -1090 38 -117 154
-346 231 -455 87 -122 281 -316 403 -403 160 -114 396 -221 597 -272 157 -39
436 -56 603 -37 l55 7 13 70 c9 43 14 147 14 270 1 162 -3 222 -20 315 -42
229 -141 519 -259 754 -103 206 -199 343 -347 495 -110 114 -110 116 9 28 215
-161 388 -382 500 -640 l42 -97 26 97 c86 319 87 496 5 663 -40 83 -158 203
-248 252 -94 52 -187 83 -440 145 -244 59 -344 93 -436 149 -77 46 -103 71
-124 118 l-18 39 -13 -59 c-18 -83 -15 -273 6 -369 39 -184 127 -359 247 -489
89 -97 144 -138 333 -246 212 -122 285 -172 363 -244 202 -189 290 -478 262
-863 -5 -76 -15 -165 -20 -198 -20 -108 2 -98 -199 -92 -125 3 -204 11 -274
26 -570 122 -1025 525 -1207 1069 -64 190 -74 264 -74 512 0 195 3 238 22 323
144 647 613 1115 1259 1259 85 19 128 22 323 22 195 0 238 -3 323 -22 576
-129 1025 -526 1207 -1069 63 -189 74 -265 74 -513 0 -248 -10 -322 -74 -512
-161 -479 -553 -869 -1025 -1019 l-105 -34 0 -52 c0 -40 4 -53 15 -53 40 0
225 69 350 131 182 89 302 176 450 324 148 148 235 268 324 450 128 259 181
483 181 765 0 282 -53 506 -181 765 -89 182 -176 302 -324 450 -228 228 -488
377 -796 455 -191 49 -468 63 -665 35z"/>
<path d="M4495 3787 c-25 -40 -98 -89 -173 -117 -31 -12 -143 -44 -249 -70
-220 -56 -320 -98 -392 -165 -108 -101 -147 -205 -138 -362 6 -95 55 -320 67
-306 4 4 13 26 20 48 23 75 109 230 165 297 60 73 146 149 231 203 30 19 56
35 58 35 3 0 -31 -35 -73 -79 -100 -100 -193 -240 -277 -415 -36 -76 -64 -139
-62 -141 2 -2 19 17 38 42 51 68 114 109 271 173 199 82 280 131 374 225 119
118 173 235 191 406 6 64 -10 237 -24 251 -4 3 -16 -8 -27 -25z"/>
</g>
</svg>
